<svg width="20px" height="20px" viewBox="0 0 20 20" version="1.1" xmlns="http://www.w3.org/2000/svg" xmlns:xlink="http://www.w3.org/1999/xlink">
  <g stroke="none" stroke-width="1" fill="none" fill-rule="evenodd">
    <g transform="translate(-1753.000000, -14.000000)" stroke="#adb0b8">
      <g transform="translate(1333.000000, 3.000000)">
        <g transform="translate(420.000000, 11.000000)">
          <g transform="translate(2.500000, 2.500000)">
            <circle cx="7.5" cy="7.5" r="7.5"></circle>
            <path d="M2.01923077,8.36538462 C4.51923077,7.21153846 7.01923077,6.63461538 9.51923077,6.63461538 C12.0192308,6.63461538 14.5192308,7.21153846 17.0192308,8.36538462" transform="translate(9.519231, 7.500000) rotate(90.000000) translate(-9.519231, -7.500000) "></path>
            <path d="M-2.01923077,8.36538462 C0.480769231,7.21153846 2.98076923,6.63461538 5.48076923,6.63461538 C7.98076923,6.63461538 10.4807692,7.21153846 12.9807692,8.36538462" transform="translate(5.480769, 7.500000) scale(-1, 1) rotate(90.000000) translate(-5.480769, -7.500000) "></path>
            <path d="M0.576923077,5.76923077 C2.88461538,5.38461538 5.19230769,5.19230769 7.5,5.19230769 C9.80769231,5.19230769 12.1153846,5.38461538 14.4230769,5.76923077" stroke-linecap="round" transform="translate(7.500000, 5.480769) scale(1, -1) translate(-7.500000, -5.480769) "></path>
            <path d="M0.576923077,9.80769231 C2.88461538,9.42307692 5.19230769,9.23076923 7.5,9.23076923 C9.80769231,9.23076923 12.1153846,9.42307692 14.4230769,9.80769231" stroke-linecap="round"></path>
          </g>
        </g>
      </g>
    </g>
  </g>
</svg> 